<mxfile host="app.diagrams.net" modified="2024-07-08T08:00:25.225Z" agent="Mozilla/5.0 (Macintosh; Intel Mac OS X 10_15_7) AppleWebKit/537.36 (KHTML, like Gecko) Chrome/126.0.0.0 Safari/537.36" etag="PdLdPQwOiraVRhCEx5YH" version="24.6.4" type="github" pages="3">
  <diagram name="페이지-1" id="zzNntaN4sGAtEQ5nvoOX">
    <mxGraphModel dx="1314" dy="812" grid="1" gridSize="10" guides="1" tooltips="1" connect="1" arrows="1" fold="1" page="1" pageScale="1" pageWidth="827" pageHeight="1169" math="0" shadow="0">
      <root>
        <mxCell id="0" />
        <mxCell id="1" parent="0" />
        <mxCell id="L8a_cEX9qCgZpHhWXm6b-3" value="Actor" style="shape=umlActor;verticalLabelPosition=bottom;verticalAlign=top;html=1;outlineConnect=0;" parent="1" vertex="1">
          <mxGeometry x="20" y="370" width="90" height="100" as="geometry" />
        </mxCell>
        <mxCell id="L8a_cEX9qCgZpHhWXm6b-4" value="1.url&lt;br&gt;2. 제목&lt;div&gt;3. 첫 문장&amp;nbsp;&lt;/div&gt;&lt;div&gt;4. 끝 문장 입력&amp;nbsp;&lt;/div&gt;" style="rounded=1;whiteSpace=wrap;html=1;align=left;" parent="1" vertex="1">
          <mxGeometry x="240" y="345" width="120" height="150" as="geometry" />
        </mxCell>
        <mxCell id="L8a_cEX9qCgZpHhWXm6b-5" value="" style="endArrow=classic;html=1;rounded=0;" parent="1" edge="1">
          <mxGeometry width="50" height="50" relative="1" as="geometry">
            <mxPoint x="120" y="430" as="sourcePoint" />
            <mxPoint x="230" y="430" as="targetPoint" />
          </mxGeometry>
        </mxCell>
        <mxCell id="L8a_cEX9qCgZpHhWXm6b-6" value="1. url 호출&lt;div&gt;2. html 파싱&lt;/div&gt;&lt;div&gt;&lt;br&gt;&lt;/div&gt;" style="rounded=1;whiteSpace=wrap;html=1;align=left;" parent="1" vertex="1">
          <mxGeometry x="490" y="347.5" width="120" height="145" as="geometry" />
        </mxCell>
        <mxCell id="L8a_cEX9qCgZpHhWXm6b-7" value="" style="endArrow=classic;html=1;rounded=0;entryX=0;entryY=0.5;entryDx=0;entryDy=0;" parent="1" target="L8a_cEX9qCgZpHhWXm6b-6" edge="1">
          <mxGeometry width="50" height="50" relative="1" as="geometry">
            <mxPoint x="370" y="420" as="sourcePoint" />
            <mxPoint x="440" y="500" as="targetPoint" />
          </mxGeometry>
        </mxCell>
        <mxCell id="L8a_cEX9qCgZpHhWXm6b-8" value="&lt;div&gt;check&amp;nbsp;&lt;/div&gt;&lt;div&gt;&lt;br&gt;&lt;/div&gt;&lt;div&gt;1. 파싱된 결과의 길이&lt;/div&gt;&lt;div&gt;2. 첫문장, 끝문장으로 컨텐츠가 유일하게 구분되는가?&amp;nbsp;&lt;/div&gt;" style="rounded=1;whiteSpace=wrap;html=1;align=left;" parent="1" vertex="1">
          <mxGeometry x="750" y="345" width="120" height="145" as="geometry" />
        </mxCell>
        <mxCell id="L8a_cEX9qCgZpHhWXm6b-9" value="" style="endArrow=classic;html=1;rounded=0;entryX=0;entryY=0.5;entryDx=0;entryDy=0;exitX=1;exitY=0.5;exitDx=0;exitDy=0;" parent="1" source="L8a_cEX9qCgZpHhWXm6b-6" target="L8a_cEX9qCgZpHhWXm6b-8" edge="1">
          <mxGeometry width="50" height="50" relative="1" as="geometry">
            <mxPoint x="390" y="550" as="sourcePoint" />
            <mxPoint x="440" y="500" as="targetPoint" />
          </mxGeometry>
        </mxCell>
        <mxCell id="L8a_cEX9qCgZpHhWXm6b-10" value="" style="rhombus;whiteSpace=wrap;html=1;" parent="1" vertex="1">
          <mxGeometry x="770" y="585" width="80" height="80" as="geometry" />
        </mxCell>
        <mxCell id="L8a_cEX9qCgZpHhWXm6b-11" value="" style="endArrow=classic;html=1;rounded=0;exitX=0;exitY=0.5;exitDx=0;exitDy=0;entryX=1.001;entryY=0.455;entryDx=0;entryDy=0;entryPerimeter=0;" parent="1" source="L8a_cEX9qCgZpHhWXm6b-10" target="L8a_cEX9qCgZpHhWXm6b-12" edge="1">
          <mxGeometry width="50" height="50" relative="1" as="geometry">
            <mxPoint x="390" y="550" as="sourcePoint" />
            <mxPoint x="580" y="620" as="targetPoint" />
          </mxGeometry>
        </mxCell>
        <mxCell id="L8a_cEX9qCgZpHhWXm6b-12" value="make message&amp;nbsp;&lt;div&gt;&lt;span style=&quot;background-color: initial;&quot;&gt;&lt;br&gt;&lt;br&gt;1.&amp;nbsp; 나누기 기준이 안되는 경우&amp;nbsp;&lt;br&gt;&lt;/span&gt;-&amp;gt;&amp;nbsp; 추천하는 나누기 첫, 끝 문장을 추천해줌&lt;br&gt;&lt;br&gt;2. 호출 자체가 에러인 경우&lt;br&gt;-&amp;gt;&amp;nbsp; 잘못된 url 임을 명시&amp;nbsp;&lt;/div&gt;" style="rounded=1;whiteSpace=wrap;html=1;align=left;" parent="1" vertex="1">
          <mxGeometry x="350" y="560" width="230" height="145" as="geometry" />
        </mxCell>
        <mxCell id="L8a_cEX9qCgZpHhWXm6b-13" value="" style="endArrow=classic;html=1;rounded=0;entryX=1;entryY=1;entryDx=0;entryDy=0;entryPerimeter=0;" parent="1" source="L8a_cEX9qCgZpHhWXm6b-12" target="L8a_cEX9qCgZpHhWXm6b-3" edge="1">
          <mxGeometry width="50" height="50" relative="1" as="geometry">
            <mxPoint x="390" y="550" as="sourcePoint" />
            <mxPoint x="440" y="500" as="targetPoint" />
            <Array as="points">
              <mxPoint x="110" y="640" />
            </Array>
          </mxGeometry>
        </mxCell>
        <mxCell id="L8a_cEX9qCgZpHhWXm6b-14" value="" style="endArrow=classic;html=1;rounded=0;entryX=0.5;entryY=0;entryDx=0;entryDy=0;exitX=0.5;exitY=1;exitDx=0;exitDy=0;" parent="1" source="L8a_cEX9qCgZpHhWXm6b-8" target="L8a_cEX9qCgZpHhWXm6b-10" edge="1">
          <mxGeometry width="50" height="50" relative="1" as="geometry">
            <mxPoint x="390" y="550" as="sourcePoint" />
            <mxPoint x="440" y="500" as="targetPoint" />
          </mxGeometry>
        </mxCell>
        <mxCell id="L8a_cEX9qCgZpHhWXm6b-15" value="No" style="text;html=1;align=center;verticalAlign=middle;whiteSpace=wrap;rounded=0;" parent="1" vertex="1">
          <mxGeometry x="670" y="635" width="60" height="30" as="geometry" />
        </mxCell>
        <mxCell id="L8a_cEX9qCgZpHhWXm6b-16" value="" style="endArrow=classic;html=1;rounded=0;exitX=1;exitY=0.5;exitDx=0;exitDy=0;" parent="1" source="L8a_cEX9qCgZpHhWXm6b-10" edge="1">
          <mxGeometry width="50" height="50" relative="1" as="geometry">
            <mxPoint x="390" y="550" as="sourcePoint" />
            <mxPoint x="960" y="625" as="targetPoint" />
          </mxGeometry>
        </mxCell>
        <mxCell id="L8a_cEX9qCgZpHhWXm6b-17" value="Yes" style="text;html=1;align=center;verticalAlign=middle;whiteSpace=wrap;rounded=0;" parent="1" vertex="1">
          <mxGeometry x="860" y="635" width="60" height="30" as="geometry" />
        </mxCell>
        <mxCell id="L8a_cEX9qCgZpHhWXm6b-20" value="완료 메세지 전송&amp;nbsp;&lt;br&gt;&lt;br&gt;메세지 스팩&amp;nbsp;&lt;div&gt;&lt;br&gt;&lt;/div&gt;&lt;div&gt;- key&amp;nbsp;&lt;/div&gt;&lt;div&gt;- 제목&amp;nbsp;&lt;br&gt;- STATUS : WAIT&lt;/div&gt;" style="rounded=1;whiteSpace=wrap;html=1;align=left;" parent="1" vertex="1">
          <mxGeometry x="970" y="552.5" width="120" height="145" as="geometry" />
        </mxCell>
        <mxCell id="L8a_cEX9qCgZpHhWXm6b-21" value="" style="endArrow=none;dashed=1;html=1;dashPattern=1 3;strokeWidth=2;rounded=0;" parent="1" edge="1">
          <mxGeometry width="50" height="50" relative="1" as="geometry">
            <mxPoint x="60" y="500" as="sourcePoint" />
            <mxPoint x="1040" y="697.5" as="targetPoint" />
            <Array as="points">
              <mxPoint x="60" y="760" />
              <mxPoint x="1040" y="760" />
            </Array>
          </mxGeometry>
        </mxCell>
        <mxCell id="L8a_cEX9qCgZpHhWXm6b-22" value="parsing 문자열&amp;nbsp;&lt;div&gt;chunk 단위로 분해&amp;nbsp;&lt;/div&gt;" style="rounded=1;whiteSpace=wrap;html=1;" parent="1" vertex="1">
          <mxGeometry x="1160" y="585" width="120" height="60" as="geometry" />
        </mxCell>
        <mxCell id="L8a_cEX9qCgZpHhWXm6b-23" value="" style="endArrow=classic;html=1;rounded=0;entryX=0;entryY=0.5;entryDx=0;entryDy=0;" parent="1" target="L8a_cEX9qCgZpHhWXm6b-22" edge="1">
          <mxGeometry width="50" height="50" relative="1" as="geometry">
            <mxPoint x="1090" y="620" as="sourcePoint" />
            <mxPoint x="440" y="500" as="targetPoint" />
          </mxGeometry>
        </mxCell>
        <mxCell id="L8a_cEX9qCgZpHhWXm6b-24" value="분해된 chunk 를 인자로&amp;nbsp;&amp;nbsp;&lt;span style=&quot;background-color: initial;&quot;&gt;open ai 호출- &amp;gt;&lt;br&gt;&amp;nbsp;md 형식으로&amp;nbsp;&lt;/span&gt;" style="rounded=1;whiteSpace=wrap;html=1;align=left;" parent="1" vertex="1">
          <mxGeometry x="1440" y="595" width="120" height="60" as="geometry" />
        </mxCell>
        <mxCell id="L8a_cEX9qCgZpHhWXm6b-25" value="" style="endArrow=classic;html=1;rounded=0;entryX=0;entryY=0.5;entryDx=0;entryDy=0;" parent="1" target="L8a_cEX9qCgZpHhWXm6b-24" edge="1">
          <mxGeometry width="50" height="50" relative="1" as="geometry">
            <mxPoint x="1280" y="620" as="sourcePoint" />
            <mxPoint x="1240" y="580" as="targetPoint" />
          </mxGeometry>
        </mxCell>
        <mxCell id="L8a_cEX9qCgZpHhWXm6b-26" value="" style="shape=flexArrow;endArrow=classic;html=1;rounded=0;fillColor=#d5e8d4;strokeColor=#82b366;" parent="1" edge="1">
          <mxGeometry width="50" height="50" relative="1" as="geometry">
            <mxPoint x="299.5" y="345" as="sourcePoint" />
            <mxPoint x="299.5" y="215" as="targetPoint" />
          </mxGeometry>
        </mxCell>
        <mxCell id="L8a_cEX9qCgZpHhWXm6b-28" value="로깅 :&amp;nbsp;" style="rounded=0;whiteSpace=wrap;html=1;" parent="1" vertex="1">
          <mxGeometry x="240" y="150" width="120" height="60" as="geometry" />
        </mxCell>
        <mxCell id="L8a_cEX9qCgZpHhWXm6b-29" value="" style="shape=flexArrow;endArrow=classic;html=1;rounded=0;fillColor=#d5e8d4;strokeColor=#82b366;" parent="1" edge="1">
          <mxGeometry width="50" height="50" relative="1" as="geometry">
            <mxPoint x="1009.5" y="552.5" as="sourcePoint" />
            <mxPoint x="1010" y="130" as="targetPoint" />
          </mxGeometry>
        </mxCell>
        <mxCell id="L8a_cEX9qCgZpHhWXm6b-30" value="DB 저장&amp;nbsp;&lt;br&gt;ParsingReq{&lt;div&gt;&amp;nbsp;id: long&lt;br&gt;&amp;nbsp;user: varchar&lt;/div&gt;&lt;div&gt;&amp;nbsp;title :&amp;nbsp; varchar&lt;/div&gt;&lt;div&gt;&amp;nbsp;status :&amp;nbsp; enum&lt;/div&gt;&lt;div&gt;&amp;nbsp;&amp;nbsp;&lt;/div&gt;&lt;div&gt;}&lt;/div&gt;" style="rounded=0;whiteSpace=wrap;html=1;align=left;" parent="1" vertex="1">
          <mxGeometry x="950" y="20" width="240" height="110" as="geometry" />
        </mxCell>
        <mxCell id="L8a_cEX9qCgZpHhWXm6b-31" value="DB 저장&amp;nbsp;&lt;br&gt;ReqChunk{&lt;div&gt;&amp;nbsp; id: long&amp;nbsp;&lt;br&gt;&amp;nbsp; requestKey : long,&lt;/div&gt;&lt;div&gt;&lt;span style=&quot;background-color: initial;&quot;&gt;&amp;nbsp; chunk : LongText ,&amp;nbsp;&lt;/span&gt;&lt;/div&gt;&lt;div&gt;&lt;span style=&quot;background-color: initial;&quot;&gt;&amp;nbsp; size: Long&amp;nbsp;&lt;/span&gt;&lt;/div&gt;&lt;div&gt;}&lt;/div&gt;" style="rounded=0;whiteSpace=wrap;html=1;align=left;" parent="1" vertex="1">
          <mxGeometry x="1090" y="170" width="240" height="110" as="geometry" />
        </mxCell>
        <mxCell id="L8a_cEX9qCgZpHhWXm6b-32" value="" style="shape=flexArrow;endArrow=classic;html=1;rounded=0;fillColor=#d5e8d4;strokeColor=#82b366;" parent="1" edge="1">
          <mxGeometry width="50" height="50" relative="1" as="geometry">
            <mxPoint x="1210" y="590" as="sourcePoint" />
            <mxPoint x="1210" y="275" as="targetPoint" />
          </mxGeometry>
        </mxCell>
        <mxCell id="L8a_cEX9qCgZpHhWXm6b-33" value="DB 저장&amp;nbsp;&lt;br&gt;OpenAiReq{&lt;div&gt;&lt;span style=&quot;background-color: initial;&quot;&gt;&amp;nbsp; full_message : Long txt&lt;/span&gt;&lt;/div&gt;&lt;div&gt;&lt;span style=&quot;background-color: initial;&quot;&gt;&amp;nbsp; result : boolean&amp;nbsp;&lt;/span&gt;&lt;/div&gt;&lt;div&gt;&lt;span style=&quot;background-color: initial;&quot;&gt;&amp;nbsp; tokens: tokens&amp;nbsp;&lt;/span&gt;&lt;/div&gt;&lt;div&gt;&lt;span style=&quot;background-color: initial;&quot;&gt;&amp;nbsp; result message : result&amp;nbsp;&lt;/span&gt;&lt;/div&gt;&lt;div&gt;&lt;span style=&quot;background-color: initial;&quot;&gt;&lt;br&gt;&amp;nbsp; reqId: long&amp;nbsp;&lt;/span&gt;&lt;/div&gt;&lt;div&gt;&lt;span style=&quot;background-color: initial;&quot;&gt;&amp;nbsp; chunkId : chunk&lt;br&gt;}&lt;/span&gt;&lt;br&gt;&lt;/div&gt;" style="rounded=0;whiteSpace=wrap;html=1;align=left;" parent="1" vertex="1">
          <mxGeometry x="1400" y="160" width="240" height="110" as="geometry" />
        </mxCell>
        <mxCell id="L8a_cEX9qCgZpHhWXm6b-34" value="" style="shape=flexArrow;endArrow=classic;html=1;rounded=0;fillColor=#d5e8d4;strokeColor=#82b366;" parent="1" edge="1">
          <mxGeometry width="50" height="50" relative="1" as="geometry">
            <mxPoint x="1490" y="595" as="sourcePoint" />
            <mxPoint x="1490" y="280" as="targetPoint" />
          </mxGeometry>
        </mxCell>
        <mxCell id="L8a_cEX9qCgZpHhWXm6b-36" value="결과를 하나의 md 응답으로 생성&amp;nbsp;" style="rounded=1;whiteSpace=wrap;html=1;" parent="1" vertex="1">
          <mxGeometry x="1730" y="595" width="120" height="60" as="geometry" />
        </mxCell>
        <mxCell id="L8a_cEX9qCgZpHhWXm6b-37" value="" style="endArrow=classic;html=1;rounded=0;exitX=1;exitY=0.5;exitDx=0;exitDy=0;" parent="1" source="L8a_cEX9qCgZpHhWXm6b-24" target="L8a_cEX9qCgZpHhWXm6b-36" edge="1">
          <mxGeometry width="50" height="50" relative="1" as="geometry">
            <mxPoint x="1700" y="510" as="sourcePoint" />
            <mxPoint x="1750" y="460" as="targetPoint" />
          </mxGeometry>
        </mxCell>
        <mxCell id="L8a_cEX9qCgZpHhWXm6b-38" value="" style="shape=flexArrow;endArrow=classic;html=1;rounded=0;fillColor=#d5e8d4;strokeColor=#82b366;" parent="1" edge="1">
          <mxGeometry width="50" height="50" relative="1" as="geometry">
            <mxPoint x="1780" y="595" as="sourcePoint" />
            <mxPoint x="1780" y="280" as="targetPoint" />
          </mxGeometry>
        </mxCell>
        <mxCell id="L8a_cEX9qCgZpHhWXm6b-39" value="DB 저장&amp;nbsp;&lt;br&gt;mdConvertResult{&lt;div&gt;&lt;span style=&quot;white-space: pre;&quot;&gt;&#x9;&lt;/span&gt;id : long&lt;br&gt;&lt;div&gt;&lt;span style=&quot;background-color: initial;&quot;&gt;&lt;span style=&quot;white-space: pre;&quot;&gt;&#x9;&lt;/span&gt;reqId: long&amp;nbsp;&lt;br&gt;&lt;/span&gt;&lt;/div&gt;&lt;div&gt;&lt;span style=&quot;background-color: initial;&quot;&gt;&amp;nbsp;&amp;nbsp;&lt;span style=&quot;white-space: pre;&quot;&gt;&#x9;&lt;/span&gt;md: longText,&lt;/span&gt;&lt;/div&gt;&lt;div&gt;&lt;span style=&quot;background-color: initial;&quot;&gt;&amp;nbsp;&lt;span style=&quot;white-space: pre;&quot;&gt;&#x9;&lt;/span&gt;&lt;/span&gt;&lt;/div&gt;&lt;div&gt;&lt;span style=&quot;background-color: initial;&quot;&gt;}&lt;/span&gt;&lt;br&gt;&lt;/div&gt;&lt;/div&gt;" style="rounded=0;whiteSpace=wrap;html=1;align=left;" parent="1" vertex="1">
          <mxGeometry x="1710" y="160" width="240" height="110" as="geometry" />
        </mxCell>
      </root>
    </mxGraphModel>
  </diagram>
  <diagram id="WNv1mQJumz_6ISoKNck1" name="페이지-2">
    <mxGraphModel dx="2842" dy="1092" grid="1" gridSize="10" guides="1" tooltips="1" connect="1" arrows="1" fold="1" page="1" pageScale="1" pageWidth="827" pageHeight="1169" math="0" shadow="0">
      <root>
        <mxCell id="0" />
        <mxCell id="1" parent="0" />
        <mxCell id="hGG4I8Mw-_6Cf5Peo73v-1" value="&lt;font style=&quot;font-size: 20px;&quot;&gt;Client - web page&lt;/font&gt;" style="rounded=0;whiteSpace=wrap;html=1;fillColor=#dae8fc;strokeColor=#6c8ebf;" vertex="1" parent="1">
          <mxGeometry x="230" y="225" width="220" height="100" as="geometry" />
        </mxCell>
        <mxCell id="hGG4I8Mw-_6Cf5Peo73v-2" value="&lt;div&gt;User&amp;nbsp;&lt;/div&gt;" style="shape=umlActor;verticalLabelPosition=bottom;verticalAlign=top;html=1;outlineConnect=0;" vertex="1" parent="1">
          <mxGeometry x="40" y="235" width="70" height="80" as="geometry" />
        </mxCell>
        <mxCell id="hGG4I8Mw-_6Cf5Peo73v-3" value="" style="verticalLabelPosition=bottom;html=1;verticalAlign=top;align=center;strokeColor=none;fillColor=#000000;shape=mxgraph.azure.github_code;pointerEvents=1;" vertex="1" parent="1">
          <mxGeometry x="300" y="430" width="50" height="50" as="geometry" />
        </mxCell>
        <mxCell id="hGG4I8Mw-_6Cf5Peo73v-4" value="&lt;b&gt;&lt;font style=&quot;font-size: 25px;&quot;&gt;회원가입 시나리오 -1&lt;/font&gt;&lt;/b&gt;" style="text;html=1;align=left;verticalAlign=middle;whiteSpace=wrap;rounded=0;" vertex="1" parent="1">
          <mxGeometry x="40" y="120" width="295" height="30" as="geometry" />
        </mxCell>
        <mxCell id="hGG4I8Mw-_6Cf5Peo73v-5" value="" style="endArrow=classic;html=1;rounded=0;entryX=-0.002;entryY=0.549;entryDx=0;entryDy=0;entryPerimeter=0;" edge="1" parent="1" target="hGG4I8Mw-_6Cf5Peo73v-1">
          <mxGeometry width="50" height="50" relative="1" as="geometry">
            <mxPoint x="120" y="280" as="sourcePoint" />
            <mxPoint x="740" y="490" as="targetPoint" />
          </mxGeometry>
        </mxCell>
        <mxCell id="hGG4I8Mw-_6Cf5Peo73v-6" value="" style="endArrow=classic;html=1;rounded=0;entryX=0.391;entryY=0.072;entryDx=0;entryDy=0;entryPerimeter=0;exitX=0.413;exitY=0.997;exitDx=0;exitDy=0;exitPerimeter=0;" edge="1" parent="1" source="hGG4I8Mw-_6Cf5Peo73v-1" target="hGG4I8Mw-_6Cf5Peo73v-3">
          <mxGeometry width="50" height="50" relative="1" as="geometry">
            <mxPoint x="130" y="290" as="sourcePoint" />
            <mxPoint x="240" y="290" as="targetPoint" />
          </mxGeometry>
        </mxCell>
        <mxCell id="hGG4I8Mw-_6Cf5Peo73v-7" value="1. 회원가입 요청" style="text;html=1;align=center;verticalAlign=middle;whiteSpace=wrap;rounded=0;" vertex="1" parent="1">
          <mxGeometry x="120" y="240" width="90" height="30" as="geometry" />
        </mxCell>
        <mxCell id="hGG4I8Mw-_6Cf5Peo73v-8" value="2. oauth page 요청" style="text;html=1;align=center;verticalAlign=middle;whiteSpace=wrap;rounded=0;" vertex="1" parent="1">
          <mxGeometry x="340" y="370" width="110" height="30" as="geometry" />
        </mxCell>
        <mxCell id="hGG4I8Mw-_6Cf5Peo73v-9" value="" style="endArrow=classic;html=1;rounded=0;exitX=0;exitY=0.5;exitDx=0;exitDy=0;exitPerimeter=0;" edge="1" parent="1" source="hGG4I8Mw-_6Cf5Peo73v-3">
          <mxGeometry width="50" height="50" relative="1" as="geometry">
            <mxPoint x="370" y="370" as="sourcePoint" />
            <mxPoint x="120" y="330" as="targetPoint" />
          </mxGeometry>
        </mxCell>
        <mxCell id="hGG4I8Mw-_6Cf5Peo73v-10" value="4. github 로그인 칸에서 로그인&amp;nbsp; 정보 입력&amp;nbsp;" style="text;html=1;align=center;verticalAlign=middle;whiteSpace=wrap;rounded=0;" vertex="1" parent="1">
          <mxGeometry x="-45" y="370" width="240" height="30" as="geometry" />
        </mxCell>
        <mxCell id="hGG4I8Mw-_6Cf5Peo73v-11" value="" style="endArrow=classic;html=1;rounded=0;" edge="1" parent="1">
          <mxGeometry width="50" height="50" relative="1" as="geometry">
            <mxPoint x="110" y="340" as="sourcePoint" />
            <mxPoint x="290" y="470" as="targetPoint" />
          </mxGeometry>
        </mxCell>
        <mxCell id="hGG4I8Mw-_6Cf5Peo73v-12" value="" style="endArrow=classic;html=1;rounded=0;" edge="1" parent="1">
          <mxGeometry width="50" height="50" relative="1" as="geometry">
            <mxPoint x="280" y="490" as="sourcePoint" />
            <mxPoint x="90" y="350" as="targetPoint" />
          </mxGeometry>
        </mxCell>
        <mxCell id="hGG4I8Mw-_6Cf5Peo73v-13" value="3. oauth 로그인 페이지 제공" style="text;html=1;align=center;verticalAlign=middle;whiteSpace=wrap;rounded=0;" vertex="1" parent="1">
          <mxGeometry x="175" y="340" width="160" height="30" as="geometry" />
        </mxCell>
        <mxCell id="hGG4I8Mw-_6Cf5Peo73v-15" value="5. 인증 성공시 code 전달&amp;nbsp;" style="text;html=1;align=center;verticalAlign=middle;whiteSpace=wrap;rounded=0;" vertex="1" parent="1">
          <mxGeometry x="-30" y="420" width="240" height="30" as="geometry" />
        </mxCell>
        <mxCell id="hGG4I8Mw-_6Cf5Peo73v-16" value="&lt;b&gt;&lt;font style=&quot;font-size: 25px;&quot;&gt;회원가입 시나리오 -2&lt;/font&gt;&lt;/b&gt;" style="text;html=1;align=left;verticalAlign=middle;whiteSpace=wrap;rounded=0;" vertex="1" parent="1">
          <mxGeometry x="560" y="120" width="295" height="30" as="geometry" />
        </mxCell>
        <mxCell id="hGG4I8Mw-_6Cf5Peo73v-17" value="&lt;font style=&quot;font-size: 20px;&quot;&gt;Client - web page&lt;/font&gt;" style="rounded=0;whiteSpace=wrap;html=1;fillColor=#dae8fc;strokeColor=#6c8ebf;" vertex="1" parent="1">
          <mxGeometry x="740" y="200" width="220" height="100" as="geometry" />
        </mxCell>
        <mxCell id="hGG4I8Mw-_6Cf5Peo73v-18" value="&lt;div&gt;User&amp;nbsp;&lt;/div&gt;" style="shape=umlActor;verticalLabelPosition=bottom;verticalAlign=top;html=1;outlineConnect=0;" vertex="1" parent="1">
          <mxGeometry x="550" y="210" width="70" height="80" as="geometry" />
        </mxCell>
        <mxCell id="hGG4I8Mw-_6Cf5Peo73v-19" value="" style="verticalLabelPosition=bottom;html=1;verticalAlign=top;align=center;strokeColor=none;fillColor=#000000;shape=mxgraph.azure.github_code;pointerEvents=1;" vertex="1" parent="1">
          <mxGeometry x="810" y="405" width="50" height="50" as="geometry" />
        </mxCell>
        <mxCell id="hGG4I8Mw-_6Cf5Peo73v-20" value="" style="endArrow=classic;html=1;rounded=0;entryX=-0.002;entryY=0.549;entryDx=0;entryDy=0;entryPerimeter=0;" edge="1" parent="1" target="hGG4I8Mw-_6Cf5Peo73v-17">
          <mxGeometry width="50" height="50" relative="1" as="geometry">
            <mxPoint x="630" y="255" as="sourcePoint" />
            <mxPoint x="1250" y="465" as="targetPoint" />
          </mxGeometry>
        </mxCell>
        <mxCell id="hGG4I8Mw-_6Cf5Peo73v-21" value="" style="endArrow=classic;html=1;rounded=0;entryX=0.877;entryY=0.259;entryDx=0;entryDy=0;entryPerimeter=0;exitX=0.144;exitY=1.022;exitDx=0;exitDy=0;exitPerimeter=0;" edge="1" parent="1" source="hGG4I8Mw-_6Cf5Peo73v-28" target="hGG4I8Mw-_6Cf5Peo73v-19">
          <mxGeometry width="50" height="50" relative="1" as="geometry">
            <mxPoint x="640" y="265" as="sourcePoint" />
            <mxPoint x="750" y="265" as="targetPoint" />
          </mxGeometry>
        </mxCell>
        <mxCell id="hGG4I8Mw-_6Cf5Peo73v-22" value="6. code 전달" style="text;html=1;align=center;verticalAlign=middle;whiteSpace=wrap;rounded=0;" vertex="1" parent="1">
          <mxGeometry x="630" y="215" width="90" height="30" as="geometry" />
        </mxCell>
        <mxCell id="hGG4I8Mw-_6Cf5Peo73v-28" value="&lt;span style=&quot;font-size: 20px;&quot;&gt;Server - backend&lt;/span&gt;" style="rounded=0;whiteSpace=wrap;html=1;fillColor=#d5e8d4;strokeColor=#82b366;" vertex="1" parent="1">
          <mxGeometry x="1060" y="200" width="220" height="100" as="geometry" />
        </mxCell>
        <mxCell id="hGG4I8Mw-_6Cf5Peo73v-29" value="" style="endArrow=classic;html=1;rounded=0;entryX=0;entryY=0.5;entryDx=0;entryDy=0;exitX=1;exitY=0.5;exitDx=0;exitDy=0;" edge="1" parent="1" source="hGG4I8Mw-_6Cf5Peo73v-17" target="hGG4I8Mw-_6Cf5Peo73v-28">
          <mxGeometry width="50" height="50" relative="1" as="geometry">
            <mxPoint x="640" y="265" as="sourcePoint" />
            <mxPoint x="750" y="265" as="targetPoint" />
          </mxGeometry>
        </mxCell>
        <mxCell id="hGG4I8Mw-_6Cf5Peo73v-30" value="7. join 요청 /code 전달" style="text;html=1;align=center;verticalAlign=middle;whiteSpace=wrap;rounded=0;" vertex="1" parent="1">
          <mxGeometry x="960" y="210" width="90" height="30" as="geometry" />
        </mxCell>
        <mxCell id="hGG4I8Mw-_6Cf5Peo73v-32" value="Github" style="text;html=1;align=center;verticalAlign=middle;whiteSpace=wrap;rounded=0;" vertex="1" parent="1">
          <mxGeometry x="295" y="490" width="60" height="30" as="geometry" />
        </mxCell>
        <mxCell id="hGG4I8Mw-_6Cf5Peo73v-33" value="Github" style="text;html=1;align=center;verticalAlign=middle;whiteSpace=wrap;rounded=0;" vertex="1" parent="1">
          <mxGeometry x="805" y="460" width="60" height="30" as="geometry" />
        </mxCell>
        <mxCell id="hGG4I8Mw-_6Cf5Peo73v-34" value="8. access token 요청&amp;nbsp;&lt;br&gt;/ code, clientKey,Secret 전달&amp;nbsp;&lt;br&gt;&lt;br&gt;/access token 수신&amp;nbsp;" style="text;html=1;align=center;verticalAlign=middle;whiteSpace=wrap;rounded=0;" vertex="1" parent="1">
          <mxGeometry x="720" y="330" width="290" height="30" as="geometry" />
        </mxCell>
        <mxCell id="hGG4I8Mw-_6Cf5Peo73v-37" value="" style="endArrow=classic;html=1;rounded=0;entryX=0.877;entryY=0.259;entryDx=0;entryDy=0;entryPerimeter=0;exitX=0.144;exitY=1.022;exitDx=0;exitDy=0;exitPerimeter=0;" edge="1" parent="1">
          <mxGeometry width="50" height="50" relative="1" as="geometry">
            <mxPoint x="1102" y="312" as="sourcePoint" />
            <mxPoint x="864" y="428" as="targetPoint" />
          </mxGeometry>
        </mxCell>
        <mxCell id="hGG4I8Mw-_6Cf5Peo73v-38" value="9. userInfo 요청&amp;nbsp;&lt;div&gt;/ accessToken 전달&amp;nbsp;&lt;/div&gt;&lt;div&gt;&lt;br&gt;/ url, uniuque Id 등 수신&amp;nbsp;&lt;/div&gt;" style="text;html=1;align=center;verticalAlign=middle;whiteSpace=wrap;rounded=0;" vertex="1" parent="1">
          <mxGeometry x="840" y="415" width="290" height="30" as="geometry" />
        </mxCell>
        <mxCell id="hGG4I8Mw-_6Cf5Peo73v-40" value="" style="verticalLabelPosition=bottom;html=1;verticalAlign=top;align=center;strokeColor=none;fillColor=#00BEF2;shape=mxgraph.azure.mysql_database;" vertex="1" parent="1">
          <mxGeometry x="1110" y="385" width="150" height="95" as="geometry" />
        </mxCell>
        <mxCell id="hGG4I8Mw-_6Cf5Peo73v-41" value="" style="endArrow=classic;html=1;rounded=0;exitX=0.5;exitY=1;exitDx=0;exitDy=0;" edge="1" parent="1" source="hGG4I8Mw-_6Cf5Peo73v-28">
          <mxGeometry width="50" height="50" relative="1" as="geometry">
            <mxPoint x="730" y="260" as="sourcePoint" />
            <mxPoint x="1170" y="380" as="targetPoint" />
          </mxGeometry>
        </mxCell>
        <mxCell id="hGG4I8Mw-_6Cf5Peo73v-42" value="10. userInfo 저장&amp;nbsp;" style="text;html=1;align=center;verticalAlign=middle;whiteSpace=wrap;rounded=0;" vertex="1" parent="1">
          <mxGeometry x="1150" y="325" width="160" height="30" as="geometry" />
        </mxCell>
        <mxCell id="hGG4I8Mw-_6Cf5Peo73v-45" value="" style="endArrow=classic;html=1;rounded=0;entryX=1.005;entryY=0.813;entryDx=0;entryDy=0;exitX=-0.011;exitY=0.799;exitDx=0;exitDy=0;exitPerimeter=0;entryPerimeter=0;" edge="1" parent="1" source="hGG4I8Mw-_6Cf5Peo73v-28" target="hGG4I8Mw-_6Cf5Peo73v-17">
          <mxGeometry width="50" height="50" relative="1" as="geometry">
            <mxPoint x="970" y="260" as="sourcePoint" />
            <mxPoint x="1070" y="260" as="targetPoint" />
          </mxGeometry>
        </mxCell>
        <mxCell id="hGG4I8Mw-_6Cf5Peo73v-46" value="11. success" style="text;html=1;align=center;verticalAlign=middle;whiteSpace=wrap;rounded=0;" vertex="1" parent="1">
          <mxGeometry x="960" y="285" width="90" height="30" as="geometry" />
        </mxCell>
        <mxCell id="hGG4I8Mw-_6Cf5Peo73v-47" value="&lt;b&gt;&lt;font style=&quot;font-size: 25px;&quot;&gt;회원가입 시나리오 - flow 가 길어서 나눠서 설명&amp;nbsp;&lt;/font&gt;&lt;/b&gt;" style="text;html=1;align=left;verticalAlign=middle;whiteSpace=wrap;rounded=0;" vertex="1" parent="1">
          <mxGeometry y="10" width="550" height="30" as="geometry" />
        </mxCell>
      </root>
    </mxGraphModel>
  </diagram>
  <diagram id="Tf7tNHegRbrk42nm5EZA" name="페이지-3">
    <mxGraphModel dx="2741" dy="1037" grid="1" gridSize="10" guides="1" tooltips="1" connect="1" arrows="1" fold="1" page="1" pageScale="1" pageWidth="827" pageHeight="1169" math="0" shadow="0">
      <root>
        <mxCell id="0" />
        <mxCell id="1" parent="0" />
        <mxCell id="sagawvgmBPaw3ejLtseO-1" value="&lt;font style=&quot;font-size: 20px;&quot;&gt;Client - web page&lt;/font&gt;" style="rounded=0;whiteSpace=wrap;html=1;fillColor=#dae8fc;strokeColor=#6c8ebf;" vertex="1" parent="1">
          <mxGeometry x="230" y="225" width="220" height="100" as="geometry" />
        </mxCell>
        <mxCell id="sagawvgmBPaw3ejLtseO-2" value="&lt;div&gt;User&amp;nbsp;&lt;/div&gt;" style="shape=umlActor;verticalLabelPosition=bottom;verticalAlign=top;html=1;outlineConnect=0;" vertex="1" parent="1">
          <mxGeometry x="40" y="235" width="70" height="80" as="geometry" />
        </mxCell>
        <mxCell id="sagawvgmBPaw3ejLtseO-3" value="" style="verticalLabelPosition=bottom;html=1;verticalAlign=top;align=center;strokeColor=none;fillColor=#000000;shape=mxgraph.azure.github_code;pointerEvents=1;" vertex="1" parent="1">
          <mxGeometry x="300" y="430" width="50" height="50" as="geometry" />
        </mxCell>
        <mxCell id="sagawvgmBPaw3ejLtseO-4" value="&lt;b&gt;&lt;font style=&quot;font-size: 25px;&quot;&gt;로그인 시나리오 -1&lt;/font&gt;&lt;/b&gt;" style="text;html=1;align=left;verticalAlign=middle;whiteSpace=wrap;rounded=0;" vertex="1" parent="1">
          <mxGeometry x="40" y="120" width="295" height="30" as="geometry" />
        </mxCell>
        <mxCell id="sagawvgmBPaw3ejLtseO-5" value="" style="endArrow=classic;html=1;rounded=0;entryX=-0.002;entryY=0.549;entryDx=0;entryDy=0;entryPerimeter=0;" edge="1" parent="1" target="sagawvgmBPaw3ejLtseO-1">
          <mxGeometry width="50" height="50" relative="1" as="geometry">
            <mxPoint x="120" y="280" as="sourcePoint" />
            <mxPoint x="740" y="490" as="targetPoint" />
          </mxGeometry>
        </mxCell>
        <mxCell id="sagawvgmBPaw3ejLtseO-6" value="" style="endArrow=classic;html=1;rounded=0;entryX=0.391;entryY=0.072;entryDx=0;entryDy=0;entryPerimeter=0;exitX=0.413;exitY=0.997;exitDx=0;exitDy=0;exitPerimeter=0;" edge="1" parent="1" source="sagawvgmBPaw3ejLtseO-1" target="sagawvgmBPaw3ejLtseO-3">
          <mxGeometry width="50" height="50" relative="1" as="geometry">
            <mxPoint x="130" y="290" as="sourcePoint" />
            <mxPoint x="240" y="290" as="targetPoint" />
          </mxGeometry>
        </mxCell>
        <mxCell id="sagawvgmBPaw3ejLtseO-7" value="1. 회원가입 요청" style="text;html=1;align=center;verticalAlign=middle;whiteSpace=wrap;rounded=0;" vertex="1" parent="1">
          <mxGeometry x="120" y="240" width="90" height="30" as="geometry" />
        </mxCell>
        <mxCell id="sagawvgmBPaw3ejLtseO-8" value="2. oauth page 요청" style="text;html=1;align=center;verticalAlign=middle;whiteSpace=wrap;rounded=0;" vertex="1" parent="1">
          <mxGeometry x="340" y="370" width="110" height="30" as="geometry" />
        </mxCell>
        <mxCell id="sagawvgmBPaw3ejLtseO-9" value="" style="endArrow=classic;html=1;rounded=0;exitX=0;exitY=0.5;exitDx=0;exitDy=0;exitPerimeter=0;" edge="1" parent="1" source="sagawvgmBPaw3ejLtseO-3">
          <mxGeometry width="50" height="50" relative="1" as="geometry">
            <mxPoint x="370" y="370" as="sourcePoint" />
            <mxPoint x="120" y="330" as="targetPoint" />
          </mxGeometry>
        </mxCell>
        <mxCell id="sagawvgmBPaw3ejLtseO-10" value="4. github 로그인 칸에서 로그인&amp;nbsp; 정보 입력&amp;nbsp;" style="text;html=1;align=center;verticalAlign=middle;whiteSpace=wrap;rounded=0;" vertex="1" parent="1">
          <mxGeometry x="-45" y="370" width="240" height="30" as="geometry" />
        </mxCell>
        <mxCell id="sagawvgmBPaw3ejLtseO-11" value="" style="endArrow=classic;html=1;rounded=0;" edge="1" parent="1">
          <mxGeometry width="50" height="50" relative="1" as="geometry">
            <mxPoint x="110" y="340" as="sourcePoint" />
            <mxPoint x="290" y="470" as="targetPoint" />
          </mxGeometry>
        </mxCell>
        <mxCell id="sagawvgmBPaw3ejLtseO-12" value="" style="endArrow=classic;html=1;rounded=0;" edge="1" parent="1">
          <mxGeometry width="50" height="50" relative="1" as="geometry">
            <mxPoint x="280" y="490" as="sourcePoint" />
            <mxPoint x="90" y="350" as="targetPoint" />
          </mxGeometry>
        </mxCell>
        <mxCell id="sagawvgmBPaw3ejLtseO-13" value="3. oauth 로그인 페이지 제공" style="text;html=1;align=center;verticalAlign=middle;whiteSpace=wrap;rounded=0;" vertex="1" parent="1">
          <mxGeometry x="175" y="340" width="160" height="30" as="geometry" />
        </mxCell>
        <mxCell id="sagawvgmBPaw3ejLtseO-14" value="5. 인증 성공시 code 전달&amp;nbsp;" style="text;html=1;align=center;verticalAlign=middle;whiteSpace=wrap;rounded=0;" vertex="1" parent="1">
          <mxGeometry x="-30" y="420" width="240" height="30" as="geometry" />
        </mxCell>
        <mxCell id="sagawvgmBPaw3ejLtseO-15" value="&lt;b&gt;&lt;font style=&quot;font-size: 25px;&quot;&gt;로그인 시나리오 -2&lt;/font&gt;&lt;/b&gt;" style="text;html=1;align=left;verticalAlign=middle;whiteSpace=wrap;rounded=0;" vertex="1" parent="1">
          <mxGeometry x="560" y="120" width="295" height="30" as="geometry" />
        </mxCell>
        <mxCell id="sagawvgmBPaw3ejLtseO-16" value="&lt;font style=&quot;font-size: 20px;&quot;&gt;Client - web page&lt;/font&gt;" style="rounded=0;whiteSpace=wrap;html=1;fillColor=#dae8fc;strokeColor=#6c8ebf;" vertex="1" parent="1">
          <mxGeometry x="740" y="200" width="220" height="100" as="geometry" />
        </mxCell>
        <mxCell id="sagawvgmBPaw3ejLtseO-17" value="&lt;div&gt;User&amp;nbsp;&lt;/div&gt;" style="shape=umlActor;verticalLabelPosition=bottom;verticalAlign=top;html=1;outlineConnect=0;" vertex="1" parent="1">
          <mxGeometry x="550" y="210" width="70" height="80" as="geometry" />
        </mxCell>
        <mxCell id="sagawvgmBPaw3ejLtseO-18" value="" style="verticalLabelPosition=bottom;html=1;verticalAlign=top;align=center;strokeColor=none;fillColor=#000000;shape=mxgraph.azure.github_code;pointerEvents=1;" vertex="1" parent="1">
          <mxGeometry x="810" y="405" width="50" height="50" as="geometry" />
        </mxCell>
        <mxCell id="sagawvgmBPaw3ejLtseO-19" value="" style="endArrow=classic;html=1;rounded=0;entryX=-0.002;entryY=0.549;entryDx=0;entryDy=0;entryPerimeter=0;" edge="1" parent="1" target="sagawvgmBPaw3ejLtseO-16">
          <mxGeometry width="50" height="50" relative="1" as="geometry">
            <mxPoint x="630" y="255" as="sourcePoint" />
            <mxPoint x="1250" y="465" as="targetPoint" />
          </mxGeometry>
        </mxCell>
        <mxCell id="sagawvgmBPaw3ejLtseO-20" value="" style="endArrow=classic;html=1;rounded=0;entryX=0.877;entryY=0.259;entryDx=0;entryDy=0;entryPerimeter=0;exitX=0.144;exitY=1.022;exitDx=0;exitDy=0;exitPerimeter=0;" edge="1" parent="1" source="sagawvgmBPaw3ejLtseO-22" target="sagawvgmBPaw3ejLtseO-18">
          <mxGeometry width="50" height="50" relative="1" as="geometry">
            <mxPoint x="640" y="265" as="sourcePoint" />
            <mxPoint x="750" y="265" as="targetPoint" />
          </mxGeometry>
        </mxCell>
        <mxCell id="sagawvgmBPaw3ejLtseO-21" value="6. code 전달" style="text;html=1;align=center;verticalAlign=middle;whiteSpace=wrap;rounded=0;" vertex="1" parent="1">
          <mxGeometry x="630" y="215" width="90" height="30" as="geometry" />
        </mxCell>
        <mxCell id="sagawvgmBPaw3ejLtseO-22" value="&lt;span style=&quot;font-size: 20px;&quot;&gt;Server - backend&lt;/span&gt;" style="rounded=0;whiteSpace=wrap;html=1;fillColor=#d5e8d4;strokeColor=#82b366;" vertex="1" parent="1">
          <mxGeometry x="1060" y="200" width="220" height="100" as="geometry" />
        </mxCell>
        <mxCell id="sagawvgmBPaw3ejLtseO-23" value="" style="endArrow=classic;html=1;rounded=0;entryX=0;entryY=0.5;entryDx=0;entryDy=0;exitX=1;exitY=0.5;exitDx=0;exitDy=0;" edge="1" parent="1" source="sagawvgmBPaw3ejLtseO-16" target="sagawvgmBPaw3ejLtseO-22">
          <mxGeometry width="50" height="50" relative="1" as="geometry">
            <mxPoint x="640" y="265" as="sourcePoint" />
            <mxPoint x="750" y="265" as="targetPoint" />
          </mxGeometry>
        </mxCell>
        <mxCell id="sagawvgmBPaw3ejLtseO-24" value="7. join 요청 /code 전달" style="text;html=1;align=center;verticalAlign=middle;whiteSpace=wrap;rounded=0;" vertex="1" parent="1">
          <mxGeometry x="960" y="210" width="90" height="30" as="geometry" />
        </mxCell>
        <mxCell id="sagawvgmBPaw3ejLtseO-25" value="Github" style="text;html=1;align=center;verticalAlign=middle;whiteSpace=wrap;rounded=0;" vertex="1" parent="1">
          <mxGeometry x="295" y="490" width="60" height="30" as="geometry" />
        </mxCell>
        <mxCell id="sagawvgmBPaw3ejLtseO-26" value="Github" style="text;html=1;align=center;verticalAlign=middle;whiteSpace=wrap;rounded=0;" vertex="1" parent="1">
          <mxGeometry x="805" y="460" width="60" height="30" as="geometry" />
        </mxCell>
        <mxCell id="sagawvgmBPaw3ejLtseO-27" value="8. access token 요청&amp;nbsp;&lt;br&gt;/ code, clientKey,Secret 전달&amp;nbsp;&lt;br&gt;&lt;br&gt;/access token 수신&amp;nbsp;" style="text;html=1;align=center;verticalAlign=middle;whiteSpace=wrap;rounded=0;" vertex="1" parent="1">
          <mxGeometry x="720" y="330" width="290" height="30" as="geometry" />
        </mxCell>
        <mxCell id="sagawvgmBPaw3ejLtseO-28" value="" style="endArrow=classic;html=1;rounded=0;entryX=0.877;entryY=0.259;entryDx=0;entryDy=0;entryPerimeter=0;exitX=0.144;exitY=1.022;exitDx=0;exitDy=0;exitPerimeter=0;" edge="1" parent="1">
          <mxGeometry width="50" height="50" relative="1" as="geometry">
            <mxPoint x="1102" y="312" as="sourcePoint" />
            <mxPoint x="864" y="428" as="targetPoint" />
          </mxGeometry>
        </mxCell>
        <mxCell id="sagawvgmBPaw3ejLtseO-29" value="9. userInfo 요청&amp;nbsp;&lt;div&gt;/ accessToken 전달&amp;nbsp;&lt;/div&gt;&lt;div&gt;&lt;br&gt;/ url, uniuque Id 등 수신&amp;nbsp;&lt;/div&gt;" style="text;html=1;align=center;verticalAlign=middle;whiteSpace=wrap;rounded=0;" vertex="1" parent="1">
          <mxGeometry x="840" y="415" width="290" height="30" as="geometry" />
        </mxCell>
        <mxCell id="sagawvgmBPaw3ejLtseO-30" value="" style="verticalLabelPosition=bottom;html=1;verticalAlign=top;align=center;strokeColor=none;fillColor=#00BEF2;shape=mxgraph.azure.mysql_database;" vertex="1" parent="1">
          <mxGeometry x="1110" y="385" width="150" height="95" as="geometry" />
        </mxCell>
        <mxCell id="sagawvgmBPaw3ejLtseO-31" value="" style="endArrow=classic;html=1;rounded=0;entryX=0.453;entryY=0.988;entryDx=0;entryDy=0;entryPerimeter=0;" edge="1" parent="1" target="sagawvgmBPaw3ejLtseO-22">
          <mxGeometry width="50" height="50" relative="1" as="geometry">
            <mxPoint x="1160" y="380" as="sourcePoint" />
            <mxPoint x="1170" y="380" as="targetPoint" />
          </mxGeometry>
        </mxCell>
        <mxCell id="sagawvgmBPaw3ejLtseO-32" value="10. userInfo 조회&amp;nbsp;&lt;br&gt;11. userInfo 와 (9) 비교, 동일하다면 로그인 성공" style="text;html=1;align=left;verticalAlign=middle;whiteSpace=wrap;rounded=0;" vertex="1" parent="1">
          <mxGeometry x="1170" y="325" width="250" height="30" as="geometry" />
        </mxCell>
        <mxCell id="sagawvgmBPaw3ejLtseO-33" value="" style="endArrow=classic;html=1;rounded=0;entryX=1.005;entryY=0.813;entryDx=0;entryDy=0;exitX=-0.011;exitY=0.799;exitDx=0;exitDy=0;exitPerimeter=0;entryPerimeter=0;" edge="1" parent="1" source="sagawvgmBPaw3ejLtseO-22" target="sagawvgmBPaw3ejLtseO-16">
          <mxGeometry width="50" height="50" relative="1" as="geometry">
            <mxPoint x="970" y="260" as="sourcePoint" />
            <mxPoint x="1070" y="260" as="targetPoint" />
          </mxGeometry>
        </mxCell>
        <mxCell id="sagawvgmBPaw3ejLtseO-34" value="13. success" style="text;html=1;align=center;verticalAlign=middle;whiteSpace=wrap;rounded=0;" vertex="1" parent="1">
          <mxGeometry x="960" y="285" width="90" height="30" as="geometry" />
        </mxCell>
        <mxCell id="sagawvgmBPaw3ejLtseO-35" value="&lt;b&gt;&lt;font style=&quot;font-size: 25px;&quot;&gt;로그인 시나리오 - flow 가 길어서 나눠서 설명&amp;nbsp;&lt;/font&gt;&lt;/b&gt;" style="text;html=1;align=left;verticalAlign=middle;whiteSpace=wrap;rounded=0;" vertex="1" parent="1">
          <mxGeometry y="10" width="550" height="30" as="geometry" />
        </mxCell>
        <mxCell id="sagawvgmBPaw3ejLtseO-36" value="12. userSession 생성 후 등록&amp;nbsp;" style="text;html=1;align=left;verticalAlign=middle;whiteSpace=wrap;rounded=0;" vertex="1" parent="1">
          <mxGeometry x="1300" y="235" width="250" height="30" as="geometry" />
        </mxCell>
      </root>
    </mxGraphModel>
  </diagram>
</mxfile>
